<svg xmlns="http://www.w3.org/2000/svg" width="60" height="67" fill="none" viewBox="0 0 60 67">
  <path stroke="#fff" stroke-linecap="round" stroke-linejoin="round" stroke-width="5" d="M13.073 41.816v9.66m0-15.899a12.523 12.523 0 0 1-4.752-2.135 13.515 13.515 0 0 1-3.603-3.95 14.511 14.511 0 0 1-1.884-5.14 14.891 14.891 0 0 1 .13-5.522 14.409 14.409 0 0 1 2.125-5.032 13.375 13.375 0 0 1 3.784-3.75 12.43 12.43 0 0 1 4.847-1.874 12.13 12.13 0 0 1 5.145.296 13.164 13.164 0 0 1 4.526-3.903 12.238 12.238 0 0 1 5.661-1.391 12.25 12.25 0 0 1 5.812 1.47 13.219 13.219 0 0 1 4.58 4.107 12.163 12.163 0 0 1 5.234-.69c1.771.156 3.493.701 5.06 1.6 1.566.9 2.943 2.134 4.046 3.627a14.32 14.32 0 0 1 2.366 5.053c.458 1.84.558 3.762.294 5.646a14.55 14.55 0 0 1-1.826 5.305 13.545 13.545 0 0 1-3.644 4.087 12.53 12.53 0 0 1-4.86 2.195v25.56c0 .854-.317 1.673-.88 2.277a2.905 2.905 0 0 1-2.125.943H16.076c-.796 0-1.56-.34-2.123-.943a3.341 3.341 0 0 1-.88-2.277V35.577Zm0 11.069h33.04-33.04Zm10.513-9.66v9.66-9.66Zm22.527 4.83v9.66-9.66Z"/>
</svg>
