<svg xmlns="http://www.w3.org/2000/svg" width="73" height="78" fill="none" viewBox="0 0 73 78">
  <path fill="#fff" d="M35.615 71.653c-.946 0-1.739-.344-2.38-1.03-.638-.685-.957-1.534-.957-2.548v-4.114c-2.503-.596-4.7-1.64-6.591-3.13-1.892-1.491-3.421-3.578-4.59-6.261-.388-.835-.403-1.714-.042-2.637.362-.925 1.016-1.597 1.962-2.014.779-.358 1.585-.342 2.42.046.834.387 1.473 1.027 1.918 1.922.946 1.788 2.142 3.145 3.588 4.07 1.446.924 3.226 1.385 5.34 1.385 2.28 0 4.213-.55 5.8-1.652 1.583-1.105 2.375-2.82 2.375-5.145 0-2.087-.611-3.742-1.835-4.966-1.224-1.22-4.06-2.607-8.51-4.157-4.783-1.61-8.065-3.532-9.845-5.767-1.78-2.237-2.67-4.966-2.67-8.185 0-3.876 1.169-6.887 3.505-9.034 2.336-2.146 4.727-3.369 7.175-3.667v-3.935c0-1.014.319-1.864.957-2.55.641-.685 1.434-1.028 2.38-1.028.945 0 1.738.343 2.38 1.027.638.687.957 1.537.957 2.55v3.936c2.114.358 3.949 1.089 5.506 2.193a13.984 13.984 0 0 1 3.838 4.068c.5.775.599 1.64.294 2.594-.307.954-.934 1.64-1.879 2.057-.779.358-1.585.372-2.42.043-.834-.327-1.612-.908-2.335-1.742a7.48 7.48 0 0 0-2.544-1.925c-.974-.446-2.184-.67-3.63-.67-2.448 0-4.31.583-5.59 1.747-1.28 1.161-1.92 2.607-1.92 4.336 0 1.967.835 3.518 2.504 4.65 1.668 1.133 4.56 2.326 8.677 3.578 3.837 1.193 6.744 3.085 8.72 5.678 1.973 2.595 2.96 5.591 2.96 8.99 0 4.234-1.168 7.453-3.504 9.66-2.336 2.206-5.229 3.577-8.677 4.114v3.935c0 1.014-.32 1.863-.958 2.547-.64.687-1.434 1.03-2.38 1.03Z"/>
</svg>
