<svg xmlns="http://www.w3.org/2000/svg" width="73" height="78" fill="none" viewBox="0 0 73 78">
  <path fill="#fff" d="M39.95 58.592h-6.006v-3.22c0-.854.316-1.673.88-2.277a2.905 2.905 0 0 1 2.123-.943c.797 0 1.56.339 2.124.943.564.604.88 1.423.88 2.277v3.22Z"/>
  <path fill="#fff" fill-rule="evenodd" d="M18.925 71.472v-6.44h3.004v-9.66c0-4.27 1.582-8.365 4.399-11.385 2.816-3.019 6.636-4.715 10.62-4.715-3.984 0-7.804-1.696-10.62-4.716-2.817-3.019-4.399-7.114-4.399-11.384v-9.66h-3.004v-6.44H54.97v6.44h-3.003v9.66c0 4.27-1.583 8.365-4.4 11.384-2.816 3.02-6.636 4.716-10.619 4.716 1.973 0 3.925.416 5.748 1.226a14.995 14.995 0 0 1 4.872 3.49 16.224 16.224 0 0 1 3.255 5.223 17.11 17.11 0 0 1 1.144 6.16v9.66h3.003v6.44H18.925Zm9.011-6.44h18.022v-9.66c0-2.562-.95-5.02-2.639-6.83-1.69-1.812-3.982-2.83-6.372-2.83-2.39 0-4.681 1.018-6.371 2.83-1.69 1.81-2.64 4.268-2.64 6.83v9.66Zm0-41.86v-9.66h18.022v9.66c0 2.562-.95 5.019-2.639 6.83-1.69 1.812-3.982 2.83-6.372 2.83-2.39 0-4.681-1.018-6.371-2.83-1.69-1.811-2.64-4.268-2.64-6.83Z" clip-rule="evenodd"/>
</svg>
