<?xml version="1.0" standalone="no"?>
<!DOCTYPE svg PUBLIC "-//W3C//DTD SVG 20010904//EN" "http://www.w3.org/TR/2001/REC-SVG-20010904/DTD/svg10.dtd">
<!-- Created using Krita: https://krita.org -->
<svg xmlns="http://www.w3.org/2000/svg" 
    xmlns:xlink="http://www.w3.org/1999/xlink"
    xmlns:krita="http://krita.org/namespaces/svg/krita"
    xmlns:sodipodi="http://sodipodi.sourceforge.net/DTD/sodipodi-0.dtd"
    width="960pt"
    height="720pt"
    viewBox="0 0 960 720">
<defs/>
<path id="shape0" transform="translate(133.47581743601, 296.645339881382)" fill="none" stroke="#ffffff" stroke-width="36" stroke-linecap="square" stroke-linejoin="bevel" d="M33.8824 0C2.83231 36.0325 -18.8257 107.262 23.8358 146.926" sodipodi:nodetypes="cc"/><path id="shape1" transform="translate(160.846765721322, 296.13511748568)" fill="none" stroke="#ffffff" stroke-width="36" stroke-linecap="square" stroke-linejoin="bevel" d="M6.51147 0.510223C7.20496 -2.14551 4.79209 6.34099 4.10587 8.17404C1.32025 15.615 0.386392 23.6394 0.0965316 31.5329C-0.724343 53.8871 3.75454 77.065 11.076 98.1451C30.555 154.23 93.8257 211.873 156.893 185.387" sodipodi:nodetypes="ccccc"/><path id="shape2" transform="translate(224.420611601591, 399.634427791139)" fill="none" stroke="#ffffff" stroke-width="36" stroke-linecap="square" stroke-linejoin="bevel" d="M77.0963 0C133.62 88.803 78.3926 249.875 0 301.194" sodipodi:nodetypes="cc"/><path id="shape3" transform="translate(219.976668552067, 646.55997639908)" fill="none" stroke="#ffffff" stroke-width="36" stroke-linecap="square" stroke-linejoin="bevel" d="M0.187875 56.6832C-4.41497 57.6497 76.8179 63.5793 105.463 56.16C153.534 53.2511 215.208 8.39459 220.663 0" sodipodi:nodetypes="ccc"/><path id="shape8" transform="translate(440.787251237453, 687.390060314166)" fill="none" stroke="#ffffff" stroke-width="36" stroke-linecap="square" stroke-linejoin="bevel" d="M50.6109 14.1028C52.7786 20.8838 48.1746 1.11937 26.5857 0C5.2584 0.127991 -3.33431 20.914 1.15887 14.2046" sodipodi:nodetypes="ccc"/><path id="shape9" transform="translate(855.511624849778, 151.977691420989)" fill="none" stroke="#ffffff" stroke-width="36" stroke-linecap="square" stroke-linejoin="bevel" d="M14.1595 0L0 417.982" sodipodi:nodetypes="cc"/><path id="shape10" transform="translate(489.153966800855, 692.381697552973)" fill="none" stroke="#ffffff" stroke-width="36" stroke-linecap="square" stroke-linejoin="bevel" d="M0 0" sodipodi:nodetypes="c"/><path id="shape11" transform="translate(495.570016597227, 570.579836791801)" fill="none" stroke="#ffffff" stroke-width="36" stroke-linecap="square" stroke-linejoin="bevel" d="M358.974 0C237.777 8.35384 76.6631 54.3358 0 128.222" sodipodi:nodetypes="cc"/><path id="shape12" transform="translate(716.06732484412, 151.305693429944)" fill="none" stroke="#ffffff" stroke-width="36" stroke-linecap="square" stroke-linejoin="bevel" d="M153.004 0.255919C106.444 -0.715021 40.7167 0.0164791 0 22.05" sodipodi:nodetypes="cc"/><path id="shape13" transform="translate(169.20870417173, 120.272589944183)" fill="none" stroke="#ffffff" stroke-width="36" stroke-linecap="square" stroke-linejoin="bevel" d="M0 170.966C33.6505 108.92 80.1788 55.0843 123.734 0" sodipodi:nodetypes="cc"/><path id="shape14" transform="translate(279.664540544879, 9.14988517504547)" fill="none" stroke="#ffffff" stroke-width="36" stroke-linecap="square" stroke-linejoin="bevel" d="M12.8555 108.728C-38.3161 43.9368 74.4253 -45.3745 155.215 26.8501C179.061 50.6204 170.433 88.8897 172.495 69.3301" sodipodi:nodetypes="ccc"/><path id="shape15" transform="translate(454.319973898335, 8.94930084541559)" fill="none" stroke="#ffffff" stroke-width="36" stroke-linecap="square" stroke-linejoin="bevel" d="M0 68.0907C21.7794 -0.983885 95.9025 -7.37478 130.017 5.18825C197.539 32.7981 196.31 105.045 159.336 124.948" sodipodi:nodetypes="ccc"/><path id="shape16" transform="translate(603.468823711704, 124.319992917597)" fill="none" stroke="#ffffff" stroke-width="36" stroke-linecap="square" stroke-linejoin="bevel" d="M4.21114 12.96C-10.282 20.1046 16.4208 7.70777 27.2511 0C70.3876 1.7308 105.894 35.3413 112.689 49.2889" sodipodi:nodetypes="ccc"/><path id="shape20" transform="translate(175.512481899107, 289.065039840002)" fill="none" stroke="#ffffff" stroke-width="36" stroke-linecap="square" stroke-linejoin="bevel" d="M0 2.9891C40.3883 -5.29154 84.4585 3.39143 129.287 32.0549" sodipodi:nodetypes="cc"/><path id="shape22" transform="translate(152.410096840952, 320.758748003821)" fill="none" stroke="#ffffff" stroke-width="36" stroke-linecap="square" stroke-linejoin="bevel" d="M5.64687 0C-3.97555 40.5946 -1.09925 80.2038 12.7403 101.922" sodipodi:nodetypes="cc"/><path id="shape23" transform="translate(127.333180818062, 425.145486264199)" fill="none" stroke="#ffffff" stroke-width="36" stroke-linecap="square" stroke-linejoin="bevel" d="M39.9017 0C42.0553 3.20205 40.8095 11.1585 37.0359 20.159C28.4261 41.9519 14.9157 54.6761 0 67.0486" sodipodi:nodetypes="ccc"/><path id="shape24" transform="translate(116.298335130869, 499.123053294822)" fill="none" stroke="#ffffff" stroke-width="36" stroke-linecap="square" stroke-linejoin="bevel" d="M2.09094 0C-8.52893 7.9133 24.4415 27.4679 30.7629 28.8443" sodipodi:nodetypes="cc"/><path id="shape25" transform="translate(144.053025143274, 529.985965145738)" fill="none" stroke="#ffffff" stroke-width="36" stroke-linecap="square" stroke-linejoin="bevel" d="M4.48394 0C4.66424 4.8616 3.41961 8.49756 1.57184 12.4345C-2.79959 16.6155 3.02497 23.9855 5.98063 25.2944C10.7902 30.4803 3.96278 36.7874 7.86158 44.6892C9.01984 50.7166 18.2728 50.1359 23.9649 54.6852" sodipodi:nodetypes="ccccc"/><path id="shape26" transform="translate(175.313181581913, 590.455470533546)" fill="none" stroke="#ffffff" stroke-width="36" stroke-linecap="square" stroke-linejoin="bevel" d="M0 0C5.9063 4.63983 -5.12073 29.7412 13.9268 43.4703C33.1979 54.1268 64.8406 26.7314 120.7 10.7622" sodipodi:nodetypes="ccc"/><path id="shape27" transform="translate(512.718677372869, 473.2098327437)" fill="none" stroke="#ffffff" stroke-width="36" stroke-linecap="square" stroke-linejoin="bevel" d="M2.07182 95.1457C-9.5994 107.843 28.5976 57.2682 102.573 28.2886C155.979 3.7973 264.601 -0.622169 253.118 0.0654342" sodipodi:nodetypes="ccc"/><path id="shape01" transform="matrix(1.00000000251384 0 0 1.00000000251384 516.27167918091 362.166872802773)" fill="none" stroke="#ffffff" stroke-width="36" stroke-linecap="square" stroke-linejoin="bevel" d="M1.71801 95.1609C-9.41092 106.596 34.6236 56.1694 102.057 28.2869C158.507 3.95312 264.086 -0.623821 252.603 0.0637829" sodipodi:nodetypes="ccc"/><path id="shape01" transform="matrix(1.00000000251384 0 0 1.00000000251384 521.313426786987 260.860883581523)" fill="none" stroke="#ffffff" stroke-width="36" stroke-linecap="square" stroke-linejoin="bevel" d="M1.6701 85.5105C-8.72632 96.4229 30.1976 51.6804 96.6317 28.2801C153.884 4.6812 258.661 -0.630628 247.178 0.0569755" sodipodi:nodetypes="ccc"/>
</svg>
