<svg xmlns="http://www.w3.org/2000/svg" width="72" height="499" fill="none" viewBox="0 0 72 499">
  <g filter="url(#a)">
    <path stroke="#130303" stroke-linecap="round" stroke-opacity=".74" stroke-width="9" d="M9 24c0-3.5 10.35-14 27-14s27 10.5 27 14"/>
  </g>
  <path stroke="#fff" stroke-linecap="round" stroke-width="9" d="M9 24C9 16.66 19.35 5 36 5s27 11.66 27 19"/>
  <g filter="url(#b)">
    <path stroke="#130303" stroke-linecap="round" stroke-opacity=".74" stroke-width="9" d="M9 118c0-3.5 10.35-14 27-14s27 10.5 27 14"/>
  </g>
  <path stroke="#fff" stroke-linecap="round" stroke-width="9" d="M9 118c0-7.727 10.35-20 27-20s27 12.273 27 20"/>
  <g filter="url(#c)">
    <path stroke="#130303" stroke-linecap="round" stroke-opacity=".74" stroke-width="9" d="M9 211c0-3.5 10.35-14 27-14s27 10.5 27 14"/>
  </g>
  <path stroke="#fff" stroke-linecap="round" stroke-width="9" d="M9 211c0-7.727 10.35-20 27-20s27 12.273 27 20"/>
  <g filter="url(#d)">
    <path stroke="#130303" stroke-linecap="round" stroke-opacity=".74" stroke-width="9" d="M9 304c0-3.5 10.35-14 27-14s27 10.5 27 14"/>
  </g>
  <path stroke="#fff" stroke-linecap="round" stroke-width="9" d="M9 304c0-7.341 10.35-19 27-19s27 11.659 27 19"/>
  <g filter="url(#e)">
    <path stroke="#130303" stroke-linecap="round" stroke-opacity=".74" stroke-width="9" d="M9 397c0-3.25 10.35-13 27-13s27 9.75 27 13"/>
  </g>
  <path stroke="#fff" stroke-linecap="round" stroke-width="9" d="M9 397c0-7.341 10.35-19 27-19s27 11.659 27 19"/>
  <g filter="url(#f)">
    <path stroke="#130303" stroke-linecap="round" stroke-opacity=".74" stroke-width="9" d="M9 490c0-3.25 10.35-13 27-13s27 9.75 27 13"/>
  </g>
  <path stroke="#fff" stroke-linecap="round" stroke-width="9" d="M9 490c0-7.341 10.35-19 27-19s27 11.659 27 19"/>
  <defs>
    <filter id="a" width="71" height="31" x=".5" y="1.5" color-interpolation-filters="sRGB" filterUnits="userSpaceOnUse">
      <feFlood flood-opacity="0" result="BackgroundImageFix"/>
      <feBlend in="SourceGraphic" in2="BackgroundImageFix" result="shape"/>
      <feGaussianBlur result="effect1_foregroundBlur_12_287" stdDeviation="2"/>
    </filter>
    <filter id="b" width="71" height="31" x=".5" y="95.5" color-interpolation-filters="sRGB" filterUnits="userSpaceOnUse">
      <feFlood flood-opacity="0" result="BackgroundImageFix"/>
      <feBlend in="SourceGraphic" in2="BackgroundImageFix" result="shape"/>
      <feGaussianBlur result="effect1_foregroundBlur_12_287" stdDeviation="2"/>
    </filter>
    <filter id="c" width="71" height="31" x=".5" y="188.5" color-interpolation-filters="sRGB" filterUnits="userSpaceOnUse">
      <feFlood flood-opacity="0" result="BackgroundImageFix"/>
      <feBlend in="SourceGraphic" in2="BackgroundImageFix" result="shape"/>
      <feGaussianBlur result="effect1_foregroundBlur_12_287" stdDeviation="2"/>
    </filter>
    <filter id="d" width="71" height="31" x=".5" y="281.5" color-interpolation-filters="sRGB" filterUnits="userSpaceOnUse">
      <feFlood flood-opacity="0" result="BackgroundImageFix"/>
      <feBlend in="SourceGraphic" in2="BackgroundImageFix" result="shape"/>
      <feGaussianBlur result="effect1_foregroundBlur_12_287" stdDeviation="2"/>
    </filter>
    <filter id="e" width="71" height="30" x=".5" y="375.5" color-interpolation-filters="sRGB" filterUnits="userSpaceOnUse">
      <feFlood flood-opacity="0" result="BackgroundImageFix"/>
      <feBlend in="SourceGraphic" in2="BackgroundImageFix" result="shape"/>
      <feGaussianBlur result="effect1_foregroundBlur_12_287" stdDeviation="2"/>
    </filter>
    <filter id="f" width="71" height="30" x=".5" y="468.5" color-interpolation-filters="sRGB" filterUnits="userSpaceOnUse">
      <feFlood flood-opacity="0" result="BackgroundImageFix"/>
      <feBlend in="SourceGraphic" in2="BackgroundImageFix" result="shape"/>
      <feGaussianBlur result="effect1_foregroundBlur_12_287" stdDeviation="2"/>
    </filter>
  </defs>
</svg>
